HIERARCHY
ROOT Hips
{
	OFFSET 0.00000 0.00000 0.00000
	CHANNELS 6 Xposition Yposition Zposition Zrotation Yrotation Xrotation 
	JOINT LHipJoint
	{
		OFFSET 0 0 0
		CHANNELS 3 Zrotation Yrotation Xrotation
		JOINT LeftHip
		{
			OFFSET 1.57338 -1.94743 0.52196
			CHANNELS 3 Zrotation Yrotation Xrotation
			JOINT LeftKnee
			{
				OFFSET 2.60333 -7.15259 0.00000
				CHANNELS 3 Zrotation Yrotation Xrotation
				JOINT LeftAnkle
				{
					OFFSET 2.77855 -7.63400 0.00000
					CHANNELS 3 Zrotation Yrotation Xrotation
					JOINT LeftToe
					{
						OFFSET 0.19847 -0.54529 2.28466
						CHANNELS 3 Zrotation Yrotation Xrotation
						End Site
						{
							OFFSET 0.00000 -0.00000 1.17993
						}
					}
				}
			}
		}
	}
	JOINT RHipJoint
	{
		OFFSET 0 0 0
		CHANNELS 3 Zrotation Yrotation Xrotation
		JOINT RightHip
		{
			OFFSET -1.61527 -1.94743 0.52196
			CHANNELS 3 Zrotation Yrotation Xrotation
			JOINT RightKnee
			{
				OFFSET -2.53829 -6.97390 0.00000
				CHANNELS 3 Zrotation Yrotation Xrotation
				JOINT RightAnkle
				{
					OFFSET -2.80762 -7.71387 0.00000
					CHANNELS 3 Zrotation Yrotation Xrotation
					JOINT RightToe
					{
						OFFSET -0.30536 -0.83898 2.28801
						CHANNELS 3 Zrotation Yrotation Xrotation
						End Site
						{
							OFFSET -0.00000 -0.00000 1.21323
						}
					}
				}
			}
		}
	}
	JOINT lowerback
	{
		OFFSET 0 0 0
		CHANNELS 3 Zrotation Yrotation Xrotation
		JOINT Chest
		{
			OFFSET -0.04381 1.99497 -0.19778
			CHANNELS 3 Zrotation Yrotation Xrotation
			JOINT Chest2
			{
				OFFSET -0.01959 2.01295 -0.04372
				CHANNELS 3 Zrotation Yrotation Xrotation
				JOINT lowerneck
				{
					OFFSET 0 0 0
					CHANNELS 3 Zrotation Yrotation Xrotation
					JOINT Neck
					{
						OFFSET -0.05459 1.76913 0.09708
						CHANNELS 3 Zrotation Yrotation Xrotation
						JOINT Head
						{
							OFFSET 0.09461 1.77368 -0.11172
							CHANNELS 3 Zrotation Yrotation Xrotation
							End Site
							{
								OFFSET 0.03812 1.78157 -0.04834
							}
						}
					}
				}
				JOINT LeftCollar
				{
					OFFSET 0 0 0
					CHANNELS 3 Zrotation Yrotation Xrotation
					JOINT LeftShoulder
					{
						OFFSET 3.50922 1.24034 -0.28866
CHANNELS 3 Zrotation Xrotation Yrotation
						JOINT LeftElbow
						{
OFFSET 0 -5.401880 0.000000
CHANNELS 3 Zrotation Xrotation Yrotation
							JOINT LeftWrist
							{
OFFSET 0 -3.685590 0.000000
CHANNELS 3 Zrotation Xrotation Yrotation
								JOINT lhand
								{
									OFFSET 0 0 0
CHANNELS 3 Zrotation Xrotation Yrotation
									JOINT LFingers
									{
OFFSET 0 -0.617530 0.000000
CHANNELS 3 Zrotation Xrotation Yrotation
										End Site
										{
OFFSET 0 -0.497870 0.000000
										}
									}
								}
								JOINT LThumb
								{
OFFSET 0 0.000000 0.000000
CHANNELS 3 Zrotation Xrotation Yrotation
									End Site
									{
OFFSET 0 -0.505470 0.505470
									}
								}
							}
						}
					}
				}
				JOINT RightCollar
				{
					OFFSET 0 0 0
					CHANNELS 3 Zrotation Yrotation Xrotation
					JOINT RightShoulder
					{
						OFFSET -2.95373 1.39649 -0.27346
CHANNELS 3 Zrotation Xrotation Yrotation
						JOINT RightElbow
						{
OFFSET 0 -6.106700 -0.000000
CHANNELS 3 Zrotation Xrotation Yrotation
							JOINT RightWrist
							{
OFFSET 0 -3.630520 0.000000
CHANNELS 3 Zrotation Xrotation Yrotation
								JOINT rhand
								{
									OFFSET 0 0 0
CHANNELS 3 Zrotation Xrotation Yrotation
									JOINT RFingers
									{
OFFSET 0 -0.583850 0.000000
CHANNELS 3 Zrotation Xrotation Yrotation
										End Site
										{
OFFSET 0 -0.470710 0.000000
										}
									}
								}
								JOINT RThumb
								{
OFFSET 0 0.000000 0.000000
CHANNELS 3 Zrotation Xrotation Yrotation
									End Site
									{
OFFSET 0 -0.477900 0.477900
									}
								}
							}
						}
					}
				}
			}
		}
	}
}
MOTION
Frames: 9
Frame Time: 0.008333333333333333
4.157800 18.824300 -0.034200 -0.000700 -52.403300 6.962900 0.000000 0.000000 0.000000 -17.345400 -6.297400 -5.402200 1.025400 6.441500 18.071000 0.750000 20.536300 -33.881000 0.005000 0.455600 1.251800 0.000000 0.000000 0.000000 16.752100 24.525800 -11.828400 -1.982400 -8.829300 25.262700 0.153000 -17.643500 -23.601800 -0.037700 -1.254000 3.447800 1.266800 -0.589400 5.479600 1.546000 -0.715000 1.775100 0.922900 -0.368500 -1.241600 -5.612600 -1.659600 -10.365100 8.219300 -2.477800 11.247200 3.308100 -0.914100 5.253600 -0.000000 0.000000 0.000000 6.530700 -7.313700 -17.236700 6.105100 -10.437300 0.558100 34.337200 54.642200 -16.594300 0.000000 0.000000 0.000000 -7.125000 0.000000 0.000000 6.504800 49.713000 -0.758700 -0.000000 0.000000 0.000000 -10.768500 -0.518900 20.117600 -57.354800 -55.562800 -32.149600 -38.036400 -53.518500 11.821100 0.000000 0.000000 0.000000 7.125000 0.000000 -0.000000 -10.096100 44.621900 -0.095200
4.034539 18.818794 -0.155522 -0.504614 -55.295574 8.927994 0.000000 0.000000 0.000000 -16.723671 -5.724861 -6.800561 1.034189 6.468252 18.149305 1.060629 20.818860 -35.938047 0.023853 0.994572 2.733818 0.000000 0.000000 0.000000 16.704495 25.763472 -14.038758 -2.027808 -8.923739 25.557079 0.123237 -16.145641 -21.661594 -0.014981 -0.788535 2.167122 0.724401 -0.585804 5.437239 1.650851 -0.750237 2.122222 1.333914 -0.389696 -0.853026 -4.950729 -0.636291 -10.113061 6.708158 -1.113011 13.287671 2.844034 -0.319360 5.733421 0.000000 0.000000 0.000000 6.593136 -8.558373 -26.599427 7.504723 -12.746847 0.839451 32.934677 44.955603 -15.454687 0.000000 0.000000 0.000000 -7.125000 0.000000 0.000000 5.156855 48.144969 -0.402326 0.000000 0.000000 0.000000 -11.163000 0.549421 26.900302 -80.140131 -59.621594 -51.472415 -48.391325 -43.086149 15.809274 0.000000 0.000000 0.000000 7.125000 0.000000 0.000000 -21.553503 51.771923 3.740725
3.918960 18.802485 -0.230644 0.225656 -57.426672 8.939116 0.000000 0.000000 0.000000 -16.977664 -4.812414 -7.309334 1.037470 6.478248 18.178574 1.247275 20.935555 -37.047886 0.052155 1.469383 4.041352 0.000000 0.000000 0.000000 16.252706 25.751566 -15.391154 -2.116120 -9.103816 26.120716 -0.069937 -13.903790 -20.537455 -0.025765 -1.035872 2.847477 0.553260 -0.977113 6.331250 1.267871 -1.292751 2.810579 1.079145 -0.665843 -0.637678 -4.764707 0.259374 -9.809634 5.862265 0.045811 16.003398 2.667481 0.173453 6.464888 0.000000 0.000000 0.000000 6.003541 -12.380699 -23.529080 7.080650 -12.051777 0.748514 30.170634 45.698746 -14.419428 0.000000 0.000000 0.000000 -7.125000 0.000000 0.000000 2.544697 46.528082 -0.099442 0.000000 0.000000 0.000000 -11.220564 0.466519 31.435923 -100.139932 -59.601839 -68.769352 -54.046540 -32.650168 18.180369 0.000000 0.000000 0.000000 7.125000 0.000000 0.000000 -29.903776 56.575991 9.050220
3.784339 18.778375 -0.340576 -2.190138 -58.691205 12.019505 0.000000 0.000000 0.000000 -15.020668 -2.581401 -10.203494 1.285610 7.184942 20.264369 1.183096 20.258462 -36.006952 0.016012 0.816177 2.243153 0.000000 0.000000 0.000000 17.761210 26.352976 -16.562737 -2.138780 -9.149224 26.263250 -0.155842 -12.829750 -20.066596 -0.041701 -1.317880 3.623968 1.954745 -1.584805 7.298423 1.458882 -2.019065 3.394706 0.559268 -1.024982 -0.599893 -5.028402 0.962360 -9.794564 5.246819 1.064829 17.805069 2.624523 0.576276 6.982792 0.000000 0.000000 0.000000 6.492068 -16.505996 -25.040004 6.818903 -11.620802 0.694747 23.959972 42.428578 -11.067049 0.000000 0.000000 0.000000 -7.125000 0.000000 0.000000 -2.830208 42.044038 -0.206551 0.000000 0.000000 0.000000 -10.838213 0.322519 33.079126 -117.157497 -57.019747 -83.283603 -55.464535 -31.829134 14.862104 0.000000 0.000000 0.000000 7.125000 0.000000 0.000000 -29.695291 52.492829 5.904012
3.618338 18.746136 -0.401958 -1.351414 -58.500299 11.676866 0.000000 0.000000 0.000000 -14.860039 -0.187293 -12.290671 1.471059 7.664115 21.698511 0.748713 19.842736 -33.085851 0.008399 -0.569134 -1.563981 0.000000 0.000000 0.000000 17.705584 25.880655 -17.510155 -2.340422 -9.541791 27.505218 -0.280868 -12.097720 -20.515290 -0.027635 -1.072572 2.948499 2.553615 -2.632303 8.414950 1.287464 -3.374023 4.285481 0.185530 -1.696891 -0.342139 -5.203597 1.552481 -10.526121 4.206495 2.097152 18.945371 2.433203 0.955039 7.440257 0.000000 0.000000 0.000000 7.996214 -18.827223 -39.069921 8.755182 -14.769158 1.137134 19.559030 28.352182 -9.707053 0.000000 0.000000 0.000000 -7.125000 0.000000 0.000000 -6.519794 40.185679 -0.777782 0.000000 0.000000 0.000000 -11.506112 0.059600 31.556079 -128.363020 -53.631317 -92.512121 -42.746061 -45.326727 7.850728 0.000000 0.000000 0.000000 7.125000 0.000000 0.000000 -14.007610 40.229418 -1.660719
3.404081 18.732229 -0.458522 -1.103540 -58.207136 12.100216 0.000000 0.000000 0.000000 -14.295260 1.462895 -15.544609 1.988916 8.842206 25.303565 0.551804 19.043021 -30.923486 0.079435 -1.810950 -4.983637 0.000000 0.000000 0.000000 18.019588 26.106602 -17.856407 -2.428929 -9.707522 28.034539 -0.435688 -11.526696 -21.448802 -0.038843 -1.271096 3.495105 3.002581 -3.614496 8.633994 1.340337 -4.664113 4.880681 0.097226 -2.333347 0.107911 -4.596797 2.454596 -10.405633 3.159898 3.398488 19.424748 2.111346 1.505907 7.543739 0.000000 0.000000 0.000000 7.373546 -22.497631 -42.466145 8.418170 -14.227933 1.052954 19.567764 25.890876 -8.037001 0.000000 0.000000 0.000000 -7.125000 0.000000 0.000000 -6.271128 38.432641 -1.019970 0.000000 0.000000 0.000000 -12.848549 -0.882695 28.862417 -137.066652 -49.712258 -99.349357 -31.260214 -52.871142 2.153991 0.000000 0.000000 0.000000 7.125000 0.000000 0.000000 -3.778987 32.482664 -1.162289
3.150994 18.745045 -0.468972 -0.249176 -57.706038 11.872926 0.000000 0.000000 0.000000 -13.876248 2.344968 -18.789932 2.741791 10.264312 29.837477 0.313763 18.192476 -28.235677 0.112278 -2.152289 -5.926929 0.000000 0.000000 0.000000 18.160684 25.951655 -17.435987 -2.400826 -9.655220 27.867360 -0.501849 -11.463641 -22.022502 -0.048301 -1.416938 3.896789 3.202040 -4.766430 8.232734 1.270465 -6.191280 4.920840 0.016573 -3.086658 0.312962 -4.009193 3.553045 -10.559902 2.610380 4.837086 21.983124 2.019952 2.104517 8.393258 0.000000 0.000000 0.000000 4.835440 -26.426329 -31.111119 6.550889 -11.177762 0.641733 17.304484 39.448037 -6.136108 0.000000 0.000000 0.000000 -7.125000 0.000000 0.000000 -7.924788 36.306180 -1.706984 0.000000 0.000000 0.000000 -14.455447 -2.800751 27.312811 -142.848265 -46.288127 -103.650173 -24.542134 -53.817457 0.693514 0.000000 0.000000 0.000000 7.125000 0.000000 0.000000 1.608811 30.739994 0.560649
2.885635 18.771789 -0.434223 1.795270 -59.206860 9.828603 0.000000 0.000000 0.000000 -14.375158 3.593184 -20.956709 3.697884 11.746683 34.842128 -0.080154 18.366264 -25.319140 0.038456 -1.265465 -3.479502 0.000000 0.000000 0.000000 17.840070 26.341118 -16.197042 -2.443514 -9.734426 28.120854 -0.625538 -10.952654 -22.657396 -0.036330 -1.230386 3.382992 2.743143 -4.898060 8.086301 0.803118 -6.400478 4.866953 -0.202017 -3.193038 0.325780 -4.089084 4.242406 -10.293738 1.780888 5.940814 23.185307 1.880976 2.484709 8.743113 0.000000 0.000000 0.000000 3.105922 -28.457635 -30.424385 6.313429 -10.783829 0.596479 17.333145 41.626711 -7.042676 0.000000 0.000000 0.000000 -7.125000 0.000000 0.000000 -8.026484 37.246486 -1.543567 0.000000 0.000000 0.000000 -15.655982 -3.768955 29.459258 -147.348444 -43.059545 -106.816122 -24.788610 -52.284868 0.107332 0.000000 0.000000 0.000000 7.125000 0.000000 0.000000 1.402171 30.096553 0.510180
2.634772 18.777289 -0.359168 4.030651 -61.099322 7.089157 0.000000 0.000000 0.000000 -14.616148 4.291067 -22.604597 4.880362 13.246915 40.301438 -0.434776 17.622290 -20.621472 0.001623 0.231854 0.637132 0.000000 0.000000 0.000000 17.536890 26.333551 -14.794070 -2.567326 -9.959294 28.845056 -0.824068 -9.409764 -23.017418 -0.042057 -1.321661 3.634289 1.974118 -4.632271 8.256218 0.355113 -6.100551 4.885417 -0.249850 -3.054541 0.286151 -3.382527 4.950472 -10.284044 -0.092787 7.213685 23.774590 1.275682 2.915019 9.019333 0.000000 0.000000 0.000000 2.116032 -29.128999 -37.173568 7.791089 -13.213254 0.904253 18.452012 36.576127 -7.409491 0.000000 0.000000 0.000000 -7.125000 0.000000 0.000000 -7.133968 37.699498 -1.291242 0.000000 0.000000 0.000000 -16.612076 -5.134434 32.105254 -152.517994 -38.632685 -110.200544 -21.250388 -50.128055 -1.200784 0.000000 0.000000 0.000000 7.125000 0.000000 0.000000 4.138753 28.681685 1.648477
